<?xml version="1.0" standalone="no"?>
<!DOCTYPE svg PUBLIC "-//W3C//DTD SVG 20010904//EN"
 "http://www.w3.org/TR/2001/REC-SVG-20010904/DTD/svg10.dtd">
<svg version="1.0" xmlns="http://www.w3.org/2000/svg"
 width="700.000000pt" height="700.000000pt" viewBox="0 0 700.000000 700.000000"
 preserveAspectRatio="xMidYMid meet">
<metadata>
Created by potrace 1.14, written by Peter Selinger 2001-2017
</metadata>
<g transform="translate(0.000000,700.000000) scale(0.100000,-0.100000)"
fill="#000000" stroke="none">
<path d="M3600 6074 c-87 -23 -175 -72 -239 -136 -241 -237 -183 -643 115
-808 46 -25 148 -56 203 -62 19 -2 72 -66 240 -289 279 -370 483 -641 493
-654 5 -5 25 -32 45 -60 21 -27 43 -57 50 -65 16 -21 219 -288 245 -325 20
-27 20 -28 3 -15 -11 8 -25 20 -31 25 -99 90 -188 169 -224 201 -24 21 -56 50
-70 64 -14 14 -57 52 -95 85 -39 33 -74 65 -80 71 -5 6 -55 51 -110 100 -55
49 -105 93 -111 99 -19 17 -166 149 -185 166 -20 17 -146 130 -223 200 -131
118 -124 108 -130 179 -10 118 -45 196 -124 281 -178 193 -470 206 -665 30
-196 -176 -204 -491 -16 -680 117 -118 291 -168 446 -128 l51 14 63 -60 c141
-131 318 -296 384 -358 38 -36 104 -97 145 -135 41 -38 108 -101 150 -141 41
-39 86 -80 98 -92 69 -59 272 -254 269 -258 -2 -2 -67 21 -143 51 -76 30 -222
86 -324 126 -102 39 -199 78 -217 85 -17 8 -34 15 -38 15 -4 0 -57 20 -118 44
-62 24 -159 62 -217 85 l-105 41 -1 58 c-2 132 -83 278 -199 357 -188 128
-446 97 -595 -72 -199 -227 -127 -584 144 -712 109 -52 210 -59 329 -23 l77
23 58 -32 c74 -41 308 -171 330 -184 9 -5 53 -30 97 -54 44 -24 96 -53 115
-64 62 -36 133 -75 212 -119 43 -23 76 -43 74 -45 -1 -2 -77 13 -167 32 -90
19 -177 38 -193 41 -16 3 -93 18 -170 35 -167 36 -330 70 -368 76 -17 3 -36
19 -54 47 -94 145 -261 212 -422 170 -73 -19 -133 -56 -186 -115 -54 -60 -73
-96 -90 -169 -56 -241 133 -474 379 -465 106 4 185 37 262 111 l47 45 196 -41
c107 -22 278 -58 380 -80 102 -22 196 -41 210 -44 14 -2 55 -11 93 -20 37 -9
82 -18 100 -21 17 -4 50 -10 72 -15 22 -5 54 -11 70 -14 50 -9 76 -15 93 -20
9 -3 31 -8 47 -11 17 -3 44 -8 60 -11 82 -18 75 -29 116 170 21 98 35 184 33
191 -3 6 19 63 49 126 29 63 66 145 83 182 23 55 139 224 237 347 7 9 32 42
57 75 24 33 49 66 56 72 7 7 14 16 16 20 3 9 49 47 383 319 132 107 240 199
240 203 0 7 -93 115 -150 175 -11 12 -99 109 -195 216 -206 229 -185 206 -236
261 -22 24 -64 71 -94 104 -29 33 -88 98 -130 145 -144 159 -194 215 -230 254
-19 22 -61 67 -92 100 l-56 61 3 91 c11 240 -134 452 -355 519 -73 22 -201 27
-270 9z"/>
<path d="M1534 2701 c-2 -2 -4 -347 -4 -766 l0 -762 1730 -1 c952 0 1731 3
1731 7 3 15 5 1507 2 1516 -4 13 -378 14 -390 1 -4 -4 -8 -258 -8 -564 l-1
-557 -1329 0 -1330 0 0 563 c0 367 -3 562 -10 563 -30 4 -387 3 -391 0z"/>
<path d="M2300 2123 l0 -183 965 0 965 0 -2 182 -3 182 -963 0 -962 1 0 -182z"/>
</g>
</svg>
